<?xml version="1.0" encoding="UTF-8" standalone="no"?>
<!-- Created with Inkscape (http://www.inkscape.org/) -->
<svg
   xmlns:dc="http://purl.org/dc/elements/1.1/"
   xmlns:cc="http://web.resource.org/cc/"
   xmlns:rdf="http://www.w3.org/1999/02/22-rdf-syntax-ns#"
   xmlns:svg="http://www.w3.org/2000/svg"
   xmlns="http://www.w3.org/2000/svg"
   xmlns:sodipodi="http://inkscape.sourceforge.net/DTD/sodipodi-0.dtd"
   xmlns:inkscape="http://www.inkscape.org/namespaces/inkscape"
   id="svg2191"
   sodipodi:version="0.32"
   inkscape:version="0.43"
   width="160"
   height="240"
   sodipodi:docbase="C:\Documents and Settings\Stéphane\Bureau"
   sodipodi:docname="lapin.svg"
   version="1.0">
  <metadata
     id="metadata2196">
    <rdf:RDF>
      <cc:Work
         rdf:about="">
        <dc:format>image/svg+xml</dc:format>
        <dc:type
           rdf:resource="http://purl.org/dc/dcmitype/StillImage" />
      </cc:Work>
    </rdf:RDF>
  </metadata>
  <defs
     id="defs2194" />
  <sodipodi:namedview
     inkscape:window-height="844"
     inkscape:window-width="1440"
     inkscape:pageshadow="2"
     inkscape:pageopacity="0.0"
     borderopacity="1.0"
     bordercolor="#666666"
     pagecolor="#ffffff"
     id="base"
     inkscape:zoom="1.0069852"
     inkscape:cx="163.57941"
     inkscape:cy="44.182117"
     inkscape:window-x="-4"
     inkscape:window-y="-4"
     inkscape:current-layer="svg2191" />
  <g
     id="g43519"
     transform="translate(-302.8843,-360.482)">
    <path
       sodipodi:nodetypes="cccccccccssscsssscsscccccccs"
       id="path1316"
       d="M 307.70309,494.26461 L 318.81214,487.38758 L 340.3249,506.608 L 374.35739,506.78433 L 380.52909,507.137 L 386.70078,509.25301 L 389.69846,511.89802 L 382.46876,518.77506 L 363.77734,518.59872 C 363.77734,518.59872 357.60565,517.76113 353.02096,516.83538 C 348.43627,515.90963 348.3481,515.64512 345.43859,514.8957 C 342.52908,514.14628 343.10217,514.14628 341.38291,513.8377 C 339.66365,513.52912 338.56156,513.66137 338.56156,513.66137 C 338.56156,513.66137 337.19497,515.64513 335.03488,516.83538 C 332.87479,518.02563 332.25762,518.42239 329.92119,518.42239 C 327.58476,518.42239 327.18801,517.62888 325.68917,516.83538 C 324.19033,516.04188 324.41075,516.13004 323.92583,515.24837 C 323.44091,514.3667 323.74949,513.3087 323.74949,513.3087 C 323.74949,513.3087 322.29474,514.49896 320.04648,515.42471 C 317.79822,516.35046 317.75413,516.48271 314.75645,517.01171 C 311.75877,517.54071 308.05575,517.54072 308.05575,517.54072 L 307.87942,512.25069 L 311.58244,507.666 L 308.05575,511.19269 L 307.70309,503.61032 L 311.58244,499.55463 L 307.52675,500.78897 C 307.52675,500.78897 307.659,495.8957 307.70309,494.26461 z "
       style="fill:#fe9fb3;fill-opacity:1;fill-rule:evenodd;stroke:#000000;stroke-width:1;stroke-linecap:butt;stroke-linejoin:miter;stroke-miterlimit:4;stroke-dasharray:none;stroke-opacity:1" />
    <path
       sodipodi:nodetypes="csssssssss"
       id="path3072"
       d="M 318.81214,490.91426 C 319.47339,491.13468 320.88407,491.13468 321.45715,491.79593 C 322.03024,492.45718 321.94207,492.32493 321.10448,493.55927 C 320.26689,494.79361 318.23905,495.49895 318.1068,496.73329 C 317.97455,497.96763 319.95831,497.39454 320.57548,498.49663 C 321.19265,499.59872 321.3249,499.51055 320.57548,501.14164 C 319.82606,502.77273 317.53372,503.83074 317.5778,505.02099 C 317.62188,506.21124 319.91422,505.06507 320.75181,505.90266 C 321.5894,506.74025 321.50124,507.137 320.92815,508.37134 C 320.35507,509.60568 319.07664,510.22285 318.45947,510.84002"
       style="fill:none;fill-opacity:0.75;fill-rule:evenodd;stroke:#000000;stroke-width:1;stroke-linecap:round;stroke-linejoin:miter;stroke-miterlimit:4;stroke-dasharray:none;stroke-opacity:1" />
    <path
       sodipodi:nodetypes="csscccsscscsssssssssssssssssscccssssssssscsssc"
       id="path3948"
       d="M 356.19498,506.608 C 356.19498,506.608 368.05345,506.51983 375.4154,506.96067 C 382.89426,507.4085 382.1161,507.79826 385.64278,508.98851 C 389.16946,510.17877 389.3458,511.10452 389.3458,511.10452 L 382.29243,518.15789 L 363.16017,518.33422 C 363.16017,518.33422 367.70078,523.09524 372.94672,524.59408 C 378.19266,526.09292 379.82376,525.82842 384.76111,525.29942 C 389.69846,524.77042 392.69614,522.47807 392.69614,522.47807 C 392.69614,522.47807 392.38756,520.93514 395.16482,524.59408 C 397.94208,528.25302 403.80519,537.11381 403.80519,537.11381 C 403.80519,537.11381 400.54301,536.27622 398.86784,536.76114 C 397.19267,537.24606 396.48733,537.42239 397.1045,539.05348 C 397.72167,540.68457 398.25067,542.00708 401.33652,543.2855 C 404.42237,544.56392 406.53838,543.8145 409.44789,544.16717 C 412.3574,544.51984 411.07898,543.99084 412.97457,544.69618 C 414.87016,545.40152 413.81216,546.2391 417.03026,546.98852 C 420.24836,547.73794 421.17411,547.51752 425.84696,547.69386 C 430.51981,547.87019 431.53374,548.1347 435.72168,547.69386 C 439.90962,547.25302 439.11611,547.38527 442.59871,545.93051 C 446.08131,544.47575 446.38989,544.25534 449.65207,541.87483 C 452.91425,539.49432 453.92817,538.78898 455.64743,536.40847 C 457.36669,534.02796 456.66135,534.42471 456.5291,532.35279 C 456.39685,530.28087 456.04418,529.57553 455.11843,528.12077 C 454.19268,526.66601 454.19268,529.48736 452.82609,526.53376 C 451.4595,523.58016 450.79824,520.45023 449.65207,516.30638 C 448.5059,512.16253 449.43165,513.26462 448.2414,509.95835 C 447.05115,506.65208 445.42005,505.8145 444.89105,503.08132 C 444.36205,500.34814 445.68455,505.15324 446.12539,499.02563 C 446.56622,492.89802 446.65439,478.57087 446.65439,478.57087 L 418.96993,477.33653 L 420.73327,467.81449 C 420.73327,467.81449 415.79591,469.22517 412.26923,471.16484 C 408.74255,473.10451 409.1393,473.45718 406.62654,475.57319 C 404.11378,477.6892 403.8052,477.99779 402.21819,479.62888 C 400.63118,481.25997 402.13002,480.86321 400.27851,482.09755 C 398.427,483.33189 397.32491,482.7588 394.81215,484.56623 C 392.29939,486.37366 394.06274,487.87249 390.22747,489.32725 C 386.3922,490.78201 383.35043,489.59176 379.47108,490.38526 C 375.59173,491.17877 376.25298,491.39918 374.71006,492.50127 C 373.16714,493.60336 373.69614,493.11843 373.29939,494.79361 C 372.90264,496.46879 373.12305,499.20197 373.12305,499.20197 C 373.12305,499.20197 366.42235,498.76114 362.71934,499.20197 C 359.01632,499.64281 360.03025,499.81914 358.31099,500.96531 C 356.59173,502.11148 356.37131,502.64048 355.84231,503.78665 C 355.31331,504.93282 356.19498,506.608 356.19498,506.608 z "
       style="fill:#ffcd02;fill-opacity:1;fill-rule:evenodd;stroke:#000000;stroke-width:1;stroke-linecap:butt;stroke-linejoin:miter;stroke-miterlimit:4;stroke-dasharray:none;stroke-opacity:1" />
    <path
       sodipodi:nodetypes="csc"
       id="path7445"
       d="M 378.06041,495.14628 C 378.06041,495.14628 382.55693,494.92586 387.05345,495.85162 C 391.54997,496.77738 396.04649,498.8493 396.04649,498.8493"
       style="fill:none;fill-opacity:0.75;fill-rule:evenodd;stroke:#000000;stroke-width:1;stroke-linecap:round;stroke-linejoin:miter;stroke-miterlimit:4;stroke-dasharray:none;stroke-opacity:1" />
    <path
       sodipodi:nodetypes="csc"
       id="path7447"
       d="M 372.59405,499.20196 C 372.59405,499.20196 378.58942,499.20196 382.99777,499.9073 C 387.40612,500.61264 390.22747,501.49431 390.22747,501.49431"
       style="fill:none;fill-opacity:0.75;fill-rule:evenodd;stroke:#000000;stroke-width:1;stroke-linecap:round;stroke-linejoin:miter;stroke-miterlimit:4;stroke-dasharray:none;stroke-opacity:1" />
    <path
       sodipodi:nodetypes="cssc"
       id="path7449"
       d="M 393.22514,522.03724 C 393.22514,522.03724 398.64742,515.90963 401.51285,511.54536 C 404.37828,507.18109 404.02561,507.48968 405.3922,504.31566 C 406.75879,501.14164 406.97921,498.8493 406.97921,498.8493"
       style="fill:none;fill-opacity:0.75;fill-rule:evenodd;stroke:#000000;stroke-width:1;stroke-linecap:round;stroke-linejoin:miter;stroke-miterlimit:4;stroke-dasharray:none;stroke-opacity:1" />
    <path
       sodipodi:nodetypes="cc"
       id="path7451"
       d="M 399.83767,513.8377 L 409.80056,509.42935"
       style="fill:none;fill-opacity:0.75;fill-rule:evenodd;stroke:#000000;stroke-width:1;stroke-linecap:round;stroke-linejoin:miter;stroke-miterlimit:4;stroke-dasharray:none;stroke-opacity:1" />
    <path
       sodipodi:nodetypes="csc"
       id="path7453"
       d="M 402.04185,519.83306 C 402.04185,519.83306 406.40612,523.35975 410.68223,526.00476 C 414.95834,528.64977 419.14627,530.41311 419.14627,530.41311"
       style="fill:none;fill-opacity:0.75;fill-rule:evenodd;stroke:#000000;stroke-width:1;stroke-linecap:round;stroke-linejoin:miter;stroke-miterlimit:4;stroke-dasharray:none;stroke-opacity:1" />
    <path
       sodipodi:nodetypes="csc"
       id="path7455"
       d="M 406.62654,527.7681 C 406.62654,527.7681 409.66831,530.19269 412.79824,532.70545 C 415.92817,535.21821 419.14627,537.81914 419.14627,537.81914"
       style="fill:none;fill-opacity:0.75;fill-rule:evenodd;stroke:#000000;stroke-width:1;stroke-linecap:round;stroke-linejoin:miter;stroke-miterlimit:4;stroke-dasharray:none;stroke-opacity:1" />
    <path
       sodipodi:nodetypes="cssss"
       id="path7457"
       d="M 434.84,538.34815 C 436.69151,538.08365 439.16019,538.12773 442.24604,537.29014 C 445.33189,536.45255 444.80288,536.40847 447.18339,534.9978 C 449.5639,533.58713 450.44557,533.45488 451.76808,531.64745 C 453.09059,529.84003 453.17875,528.73794 453.35509,527.7681"
       style="fill:none;fill-opacity:0.75;fill-rule:evenodd;stroke:#000000;stroke-width:1;stroke-linecap:round;stroke-linejoin:miter;stroke-miterlimit:4;stroke-dasharray:none;stroke-opacity:1" />
    <path
       sodipodi:nodetypes="csc"
       id="path7459"
       d="M 401.51285,480.86321 C 401.51285,480.86321 405.25995,481.08363 407.50821,480.33421 C 409.75647,479.58479 410.85856,477.86553 410.85856,477.86553"
       style="fill:none;fill-opacity:0.75;fill-rule:evenodd;stroke:#000000;stroke-width:1;stroke-linecap:round;stroke-linejoin:miter;stroke-miterlimit:4;stroke-dasharray:none;stroke-opacity:1" />
    <path
       sodipodi:nodetypes="cc"
       id="path7461"
       d="M 414.91425,476.80753 L 419.05809,477.33653"
       style="fill:none;fill-opacity:0.75;fill-rule:evenodd;stroke:#000000;stroke-width:1;stroke-linecap:round;stroke-linejoin:miter;stroke-miterlimit:4;stroke-dasharray:none;stroke-opacity:1" />
    <path
       sodipodi:nodetypes="csssc"
       id="path7463"
       d="M 418.7936,477.33653 C 418.7936,477.33653 425.09754,480.42238 428.31564,482.62656 C 431.53374,484.83074 430.25531,484.6544 432.72399,487.03491 C 435.19267,489.41542 435.23675,488.4015 438.19035,492.1486 C 441.14395,495.8957 444.89105,502.28781 444.89105,502.28781"
       style="fill:none;fill-opacity:0.75;fill-rule:evenodd;stroke:#000000;stroke-width:1;stroke-linecap:butt;stroke-linejoin:miter;stroke-miterlimit:4;stroke-dasharray:none;stroke-opacity:1" />
    <path
       sodipodi:nodetypes="cssc"
       id="path8338"
       d="M 388.87941,510.68503 C 388.87941,510.68503 391.59533,511.984 392.57724,513.83872 C 393.55915,515.69344 393.2942,515.97399 393.5124,518.01574 C 393.7306,520.05749 392.74471,522.18206 392.74471,522.18206"
       style="fill:none;fill-opacity:0.75;fill-rule:evenodd;stroke:#000000;stroke-width:1;stroke-linecap:butt;stroke-linejoin:miter;stroke-miterlimit:4;stroke-dasharray:none;stroke-opacity:1" />
    <path
       sodipodi:nodetypes="csssssscssssssscccccsccsssccc"
       id="path11868"
       d="M 407.06738,544.07901 C 407.06738,544.07901 412.97457,544.51984 413.41541,544.60801 C 413.85624,544.69618 416.12655,546.45952 419.93977,547.25302 C 423.753,548.04652 424.63467,547.80406 428.66831,547.78202 C 432.70195,547.75998 432.54766,547.87018 436.07434,547.16485 C 439.60102,546.45952 439.31448,546.45952 442.77504,544.96068 C 446.2356,543.46184 447.07318,543.17529 449.91657,541.16949 C 452.75996,539.16369 454.23676,537.81914 454.23676,537.81914 C 454.23676,537.81914 453.95021,539.93515 453.00242,542.93283 C 452.05462,545.93051 451.92237,546.28318 450.35741,548.92819 C 448.79245,551.5732 448.85857,551.35279 446.74256,553.51288 C 444.62655,555.67297 444.16367,556.02565 441.89337,557.56857 C 439.62307,559.11149 440.28432,558.86903 437.66135,559.68458 C 435.03838,560.50013 434.37713,559.92704 431.40149,560.83075 C 428.42585,561.73446 428.60219,561.97693 425.7588,563.29943 C 422.91541,564.62194 420.02794,566.12077 420.02794,566.12077 L 418.70543,570.70546 L 416.06042,575.73099 L 414.38524,577.67066 L 416.06042,579.34584 C 416.06042,579.34584 412.62191,581.13122 409.80056,583.57785 C 406.97921,586.02449 404.77503,589.13238 404.77503,589.13238 L 383.1741,574.32031 C 383.1741,574.32031 381.10217,573.26231 380.17642,571.49897 C 379.25067,569.73563 379.38291,569.16254 379.47108,567.26695 C 379.55925,565.37136 379.33884,565.41544 380.52909,563.9166 C 381.71934,562.41776 384.2321,561.27159 384.2321,561.27159 L 405.9212,545.93051 L 407.06738,544.07901 z "
       style="fill:#ffcd02;fill-opacity:1;fill-rule:evenodd;stroke:#000000;stroke-width:1;stroke-linecap:butt;stroke-linejoin:miter;stroke-miterlimit:4;stroke-dasharray:none;stroke-opacity:1" />
    <path
       sodipodi:nodetypes="csssc"
       id="path14490"
       d="M 405.9212,546.01868 C 405.9212,546.01868 407.08942,548.22286 408.21355,549.63353 C 409.33768,551.0442 409.27155,550.66949 410.85856,551.74954 C 412.44557,552.82959 412.57782,553.16021 414.56158,553.95372 C 416.54534,554.74722 418.7936,554.92356 418.7936,554.92356"
       style="fill:none;fill-opacity:0.75;fill-rule:evenodd;stroke:#000000;stroke-width:1;stroke-linecap:round;stroke-linejoin:miter;stroke-miterlimit:4;stroke-dasharray:none;stroke-opacity:1" />
    <path
       sodipodi:nodetypes="cssc"
       id="path14492"
       d="M 405.48037,553.24838 C 405.48037,553.24838 405.87865,554.85433 406.89104,555.71706 C 407.56852,556.29439 408.41223,556.66929 409.18339,557.12773 C 410.27844,557.77872 411.2994,558.2739 411.2994,558.2739"
       style="fill:none;fill-opacity:0.75;fill-rule:evenodd;stroke:#000000;stroke-width:1;stroke-linecap:round;stroke-linejoin:miter;stroke-miterlimit:4;stroke-dasharray:none;stroke-opacity:1" />
    <path
       sodipodi:nodetypes="cssc"
       id="path14494"
       d="M 401.60102,549.01637 C 401.60102,549.01637 401.33652,552.63122 401.68919,554.83539 C 402.04186,557.03956 402.10798,556.99548 403.01169,558.62657 C 403.9154,560.25766 405.30404,561.35975 405.30404,561.35975"
       style="fill:none;fill-opacity:0.75;fill-rule:evenodd;stroke:#000000;stroke-width:1;stroke-linecap:round;stroke-linejoin:miter;stroke-miterlimit:4;stroke-dasharray:none;stroke-opacity:1" />
    <path
       sodipodi:nodetypes="cssss"
       id="path14496"
       d="M 393.31331,571.4108 C 393.31331,571.4108 396.37712,571.78551 399.48501,571.49897 C 402.5929,571.21243 402.3284,570.99201 405.74487,570.26463 C 409.16134,569.53725 409.69034,569.53725 413.1509,568.58945 C 416.61146,567.64165 417.95601,566.75998 420.1161,566.12077"
       style="fill:none;fill-opacity:0.75;fill-rule:evenodd;stroke:#000000;stroke-width:1;stroke-linecap:round;stroke-linejoin:miter;stroke-miterlimit:4;stroke-dasharray:none;stroke-opacity:1" />
    <path
       sodipodi:nodetypes="csc"
       id="path14498"
       d="M 393.80579,574.82349 C 393.80579,574.82349 394.5993,573.67731 395.48097,572.79564 C 396.36264,571.91397 396.97981,571.5613 396.97981,571.5613"
       style="fill:none;fill-opacity:0.75;fill-rule:evenodd;stroke:#000000;stroke-width:1;stroke-linecap:round;stroke-linejoin:miter;stroke-miterlimit:4;stroke-dasharray:none;stroke-opacity:1" />
    <path
       sodipodi:nodetypes="csc"
       id="path14500"
       d="M 401.51285,576.61266 C 401.51285,576.61266 402.96761,575.04769 404.5987,574.23214 C 406.22979,573.41659 409.09522,573.35047 409.09522,573.35047"
       style="fill:none;fill-opacity:0.75;fill-rule:evenodd;stroke:#000000;stroke-width:1;stroke-linecap:round;stroke-linejoin:miter;stroke-miterlimit:4;stroke-dasharray:none;stroke-opacity:1" />
    <path
       sodipodi:nodetypes="cscc"
       id="path14502"
       d="M 412.79824,568.76579 C 412.79824,568.76579 412.55578,570.85975 412.18107,572.55697 C 411.80636,574.25419 411.2994,575.55465 411.2994,575.55465 L 414.73791,577.84699"
       style="fill:none;fill-opacity:0.75;fill-rule:evenodd;stroke:#000000;stroke-width:1;stroke-linecap:butt;stroke-linejoin:miter;stroke-miterlimit:4;stroke-dasharray:none;stroke-opacity:1" />
    <path
       sodipodi:nodetypes="cssssccc"
       id="path14504"
       d="M 415.61958,578.99317 C 415.61958,578.99317 417.80172,580.55813 418.5291,581.81451 C 419.25648,583.07089 419.08015,583.13702 418.5291,584.01869 C 417.97806,584.90036 417.44905,584.94445 416.32492,585.3412 C 415.20079,585.73795 415.00242,586.00245 414.03258,585.6057 C 413.06274,585.20895 412.44557,583.75419 412.44557,583.75419 L 411.5639,582.69618 L 415.61958,578.99317 z "
       style="fill:#ffcd02;fill-opacity:1;fill-rule:evenodd;stroke:#000000;stroke-width:1;stroke-linecap:butt;stroke-linejoin:miter;stroke-miterlimit:4;stroke-dasharray:none;stroke-opacity:1" />
    <path
       sodipodi:nodetypes="cscssscssssscsssssssscsssccsscccc"
       id="path16260"
       d="M 386.43628,576.78899 C 386.43628,576.78899 384.29823,577.47229 382.82143,578.376 C 381.34463,579.27971 380.52909,580.40384 380.52909,580.40384 C 380.52909,580.40384 378.08245,578.77274 375.9444,578.19966 C 373.80635,577.62658 373.38755,577.91312 371.97688,578.1115 C 370.56621,578.30988 370.63234,578.35396 370.30171,578.99317 C 369.97109,579.63238 370.65438,580.66834 370.65438,580.66834 C 370.65438,580.66834 366.64278,579.96301 364.48268,580.22751 C 362.32259,580.49201 362.9618,580.71243 362.014,581.72635 C 361.06621,582.74027 361.13234,582.85047 360.6915,584.28319 C 360.25067,585.71591 359.94207,586.22287 360.25066,587.45721 C 360.55924,588.69155 361.1103,588.77972 361.92584,589.22055 C 362.74138,589.66139 363.51284,589.22055 363.51284,589.22055 C 363.51284,589.22055 363.53489,590.80756 364.21818,592.5709 C 364.90148,594.33424 365.14393,594.86324 366.24602,596.27391 C 367.34811,597.68458 367.83206,597.92633 368.62653,598.21359 C 370.11416,598.75148 376.42932,598.963 386.43628,599.27159 C 396.44324,599.58017 400.76343,599.77856 408.65438,599.44793 C 416.54533,599.1173 414.78199,598.5883 418.00009,597.94909 C 421.21819,597.30988 420.51286,597.83888 421.52678,596.89108 C 422.5407,595.94328 421.76924,595.3702 422.05578,594.1579 C 422.34232,592.9456 422.67295,592.04189 422.67295,592.04189 C 422.67295,592.04189 424.48038,592.28435 425.40613,591.42472 C 426.33189,590.56509 426.26576,589.72751 426.37597,588.60338 C 426.48618,587.47925 427.0813,587.9862 425.84696,586.9282 C 424.61262,585.87019 421.43861,584.37136 421.43861,584.37136 L 418.96993,583.40152 C 418.96993,583.40152 417.38293,584.67994 416.06042,585.25303 C 414.73792,585.82611 414.80404,586.31103 413.67991,585.69386 C 412.55578,585.07669 411.5639,582.78435 411.5639,582.78435 L 408.74255,585.07669 L 404.42236,588.51521 L 386.43628,576.78899 z "
       style="fill:#fe9fb3;fill-opacity:1;fill-rule:evenodd;stroke:#000000;stroke-width:1;stroke-linecap:butt;stroke-linejoin:miter;stroke-miterlimit:4;stroke-dasharray:none;stroke-opacity:1" />
    <path
       sodipodi:nodetypes="cssc"
       id="path17136"
       d="M 363.42467,589.30871 C 363.42467,589.30871 364.85739,588.29479 365.80519,587.54537 C 366.75299,586.79595 365.93744,586.48737 367.6567,586.1347 C 369.37596,585.78203 372.68222,586.1347 372.68222,586.1347"
       style="fill:none;fill-opacity:0.75;fill-rule:evenodd;stroke:#000000;stroke-width:1;stroke-linecap:round;stroke-linejoin:miter;stroke-miterlimit:4;stroke-dasharray:none;stroke-opacity:1" />
    <path
       sodipodi:nodetypes="ccsc"
       id="path17138"
       d="M 380.26459,580.31567 L 397.54533,589.74955 C 397.54533,589.74955 400.21239,589.39689 401.68919,588.95605 C 403.16599,588.51522 403.45253,587.98621 403.45253,587.98621"
       style="fill:none;fill-opacity:0.75;fill-rule:evenodd;stroke:#000000;stroke-width:1;stroke-linecap:butt;stroke-linejoin:miter;stroke-miterlimit:4;stroke-dasharray:none;stroke-opacity:1" />
    <path
       sodipodi:nodetypes="cc"
       id="path17140"
       d="M 393.93048,592.39456 L 398.60333,589.57322"
       style="fill:none;fill-opacity:0.75;fill-rule:evenodd;stroke:#000000;stroke-width:1;stroke-linecap:round;stroke-linejoin:miter;stroke-miterlimit:4;stroke-dasharray:none;stroke-opacity:1" />
    <path
       sodipodi:nodetypes="ccc"
       id="path17142"
       d="M 402.74719,593.01173 L 403.98153,590.89572 L 404.77503,588.42704"
       style="fill:none;fill-opacity:0.75;fill-rule:evenodd;stroke:#000000;stroke-width:1;stroke-linecap:round;stroke-linejoin:miter;stroke-miterlimit:4;stroke-dasharray:none;stroke-opacity:1" />
    <path
       sodipodi:nodetypes="ccc"
       id="path17144"
       d="M 415.17875,585.8702 L 418.17643,589.13238 L 422.32028,592.04189"
       style="fill:none;fill-opacity:0.75;fill-rule:evenodd;stroke:#000000;stroke-width:1;stroke-linecap:butt;stroke-linejoin:miter;stroke-miterlimit:4;stroke-dasharray:none;stroke-opacity:1" />
    <path
       sodipodi:nodetypes="cccccssc"
       id="path19770"
       d="M 446.63743,491.25623 L 446.0933,497.76104 L 445.19834,503.3281 L 448.32957,510.31102 L 451.32725,504.49199 C 451.32725,504.49199 453.44326,501.47227 453.88409,499.46647 C 454.32493,497.46067 454.90225,498.52135 453.09059,496.46879 C 451.27893,494.41623 446.63743,491.25623 446.63743,491.25623 z "
       style="fill:#fe9fb3;fill-opacity:1;fill-rule:evenodd;stroke:#000000;stroke-width:1px;stroke-linecap:butt;stroke-linejoin:miter;stroke-opacity:1" />
    <path
       sodipodi:nodetypes="cscccc"
       id="path20646"
       d="M 391.88033,472.58972 C 391.64468,472.4807 394.74603,470.56971 397.1045,468.34349 C 399.46297,466.11727 400.80751,464.19964 400.80751,464.19964 L 409.62422,472.92818 L 402.04185,479.27621 C 402.04185,479.27621 392.11598,472.76108 391.88033,472.58972 z "
       style="fill:#fe9fb3;fill-opacity:1;fill-rule:evenodd;stroke:#000000;stroke-width:1px;stroke-linecap:butt;stroke-linejoin:miter;stroke-opacity:1" />
    <path
       sodipodi:nodetypes="cssssssssssssssssssssssssssss"
       id="path20648"
       d="M 346.7611,445.68455 C 344.7553,445.66251 345.01981,446.0813 343.05809,446.8748 C 341.09637,447.6683 340.78778,447.66831 338.25297,449.0349 C 335.71816,450.40149 331.33186,453.50938 330.62652,456.08827 C 329.92119,458.66716 329.54648,460.36437 330.27386,463.2298 C 331.00124,466.09523 336.22513,470.48154 338.64973,472.48734 C 341.07432,474.49314 343.6973,476.05811 346.7611,476.19036 C 349.82491,476.32261 356.12884,477.04999 357.42931,478.13004 C 358.72978,479.21009 358.83999,479.60684 360.6915,480.42238 C 362.54301,481.23792 362.63117,481.23793 364.83535,481.39222 C 367.03953,481.54651 367.43628,481.85509 369.5082,481.03955 C 371.58012,480.22401 371.42583,479.43051 373.12305,478.13004 C 374.82027,476.82957 374.69493,476.79932 376.54644,476.33644 C 378.39795,475.87356 381.85159,474.55927 384.05577,473.89802 C 386.25995,473.23676 387.34,474.00822 389.3458,473.63351 C 391.3516,473.2588 390.27155,473.65556 392.07897,472.39918 C 393.88639,471.1428 394.45949,470.67992 396.5755,468.60799 C 398.69151,466.53606 398.91192,466.40381 400.54301,464.11147 C 402.1741,461.81913 405.30404,460.03375 406.00937,457.32261 C 406.7147,454.61147 407.26575,451.74604 405.9212,448.59407 C 404.57665,445.44209 403.49661,445.97109 400.63118,444.71471 C 397.76575,443.45833 391.46181,444.27387 388.64046,444.45021 C 385.81911,444.62654 386.45833,444.45021 383.1741,444.27388 C 379.88988,444.09755 378.34695,443.65671 375.50356,443.74488 C 372.66017,443.83305 374.02677,444.07551 371.80055,444.62655 C 369.57433,445.17759 369.08941,445.72863 366.59869,445.94905 C 364.10797,446.16947 365.03373,445.57434 361.83767,445.50822 C 358.64161,445.44209 357.5836,445.64047 353.81446,445.68455 C 350.04532,445.72863 348.7669,445.70659 346.7611,445.68455 z "
       style="fill:none;fill-opacity:0.75;fill-rule:evenodd;stroke:#000000;stroke-width:1px;stroke-linecap:butt;stroke-linejoin:miter;stroke-opacity:1" />
    <path
       sodipodi:nodetypes="csc"
       id="path22410"
       d="M 395.75676,466.08358 C 395.75676,466.08358 397.12833,464.64968 397.75176,463.09109 C 398.37519,461.5325 398.2505,459.84922 398.2505,459.84922"
       style="fill:none;fill-opacity:0.75;fill-rule:evenodd;stroke:#000000;stroke-width:1px;stroke-linecap:round;stroke-linejoin:miter;stroke-opacity:1" />
    <path
       sodipodi:nodetypes="csc"
       id="path22412"
       d="M 383.58151,474.12276 C 383.58151,474.12276 385.59476,472.69199 386.77929,471.32043 C 387.96382,469.94887 388.27554,468.32794 388.27554,468.32794"
       style="fill:none;fill-opacity:0.75;fill-rule:evenodd;stroke:#000000;stroke-width:1px;stroke-linecap:round;stroke-linejoin:miter;stroke-opacity:1" />
    <path
       sodipodi:nodetypes="cssscscsssc"
       id="path22414"
       d="M 343.63757,447.87926 C 343.63757,447.87926 342.7559,446.35903 345.74839,445.7356 C 348.74088,445.11216 351.29384,445.69724 355.60753,445.38552 C 359.92122,445.0738 358.33916,445.30363 361.10758,445.32631 C 363.71844,445.3477 367.72616,445.4711 367.72616,445.4711 C 367.72616,445.4711 362.65234,450.24832 359.09876,451.86925 C 355.54518,453.49018 350.29374,453.49775 350.29374,453.49775 C 350.29374,453.49775 351.59669,451.99393 350.91091,450.87175 C 350.22513,449.74957 351.09297,449.56254 349.53438,448.87676 C 347.97579,448.19098 347.62755,448.37802 346.13131,448.12864 C 344.63507,447.87927 343.63757,447.87926 343.63757,447.87926 z "
       style="fill:#fe9fb3;fill-opacity:1;fill-rule:evenodd;stroke:#000000;stroke-width:1px;stroke-linecap:butt;stroke-linejoin:miter;stroke-opacity:1" />
    <path
       sodipodi:nodetypes="cssszssssssscccscc"
       id="path23289"
       d="M 346.21948,445.76585 C 346.21948,445.76585 348.27303,442.55046 351.36816,439.40054 C 354.46329,436.25062 355.65603,435.86144 358.60001,433.16619 C 361.54399,430.47094 361.16765,430.1958 363.14406,428.61955 C 365.12047,427.04329 366.50565,426.86117 366.50565,426.86117 C 366.50565,426.86117 367.44045,427.71227 367.98641,428.61234 C 368.53236,429.51242 368.68946,430.46145 369.60273,430.65732 C 371.42928,431.04905 371.16694,428.70954 373.371,427.98724 C 375.57506,427.26494 375.92082,426.5124 377.97815,426.88646 C 380.03548,427.26052 381.23515,427.80465 382.48202,429.92433 C 383.72889,432.04401 383.3504,433.29088 382.78931,436.15868 C 382.22822,439.02648 381.17282,439.52523 380.23766,441.39554 C 379.30251,443.26585 379.66586,443.99257 379.66586,443.99257 L 374.06121,443.6399 L 366.57999,445.6349 C 366.57999,445.6349 363.0264,445.13615 359.09876,445.13615 C 355.17112,445.13615 350.86942,445.6349 350.86942,445.6349 L 346.21948,445.76585 z "
       style="fill:none;fill-opacity:0.75;fill-rule:evenodd;stroke:#000000;stroke-width:1px;stroke-linecap:butt;stroke-linejoin:miter;stroke-opacity:1" />
    <path
       sodipodi:nodetypes="cccssscsssssssssssscscssssscscssssssssssssssscsssssssssc"
       id="path20650"
       d="M 379.47108,444.00937 L 387.4502,444.45021 L 395.69382,443.74488 C 395.69382,443.74488 394.61378,440.72516 392.78431,437.92585 C 390.95484,435.12655 389.58826,434.77388 388.37596,432.54766 C 387.16366,430.32144 387.78083,430.65207 387.93512,429.02098 C 388.08941,427.38989 388.99313,426.02329 388.99313,426.02329 C 388.99313,426.02329 392.2994,427.14742 395.87016,426.64046 C 399.44092,426.1335 398.75763,425.58245 403.27619,423.99545 C 407.79475,422.40845 418.0001,418.41888 422.32028,415.79591 C 426.64047,413.17294 427.96297,412.07085 431.22515,409.80055 C 434.48733,407.53025 432.61379,409.09522 435.36901,406.71471 C 438.12423,404.3342 439.55694,403.40844 442.24604,400.27851 C 444.93514,397.14858 444.34001,397.19266 446.12539,394.19498 C 447.91077,391.1973 451.23908,386.03952 451.85625,383.26226 C 452.47342,380.485 452.34117,379.33883 451.85625,377.17874 C 451.37133,375.01865 451.12887,375.45948 449.91657,374.62189 C 448.70427,373.7843 448.54998,373.74022 447.00706,373.82839 C 445.46414,373.91656 445.24372,374.2031 443.74488,374.97456 L 432.90033,381.41076 C 432.90033,381.41076 427.65439,384.62885 423.02562,387.84695 C 418.39685,391.06505 414.38524,394.28315 414.38524,394.28315 C 414.38524,394.28315 408.54418,398.42701 404.0697,402.21819 C 399.59522,406.00938 399.66134,406.31796 396.48733,409.44789 C 393.31331,412.57782 393.51169,412.31332 391.37364,414.73791 C 389.23559,417.1625 389.36784,417.18454 387.93512,419.14626 C 386.5024,421.10798 386.52445,421.46065 385.64278,422.58478 C 384.76111,423.70891 384.40844,423.64278 384.40844,423.64278 C 384.40844,423.64278 383.04185,422.89336 381.93976,422.40844 C 380.83767,421.92352 380.00009,421.70311 380.00009,421.70311 C 380.00009,421.70311 380.1103,420.20427 382.1161,416.94209 C 384.1219,413.67991 384.58477,412.37944 388.02329,408.65438 C 391.4618,404.92932 391.52793,405.98733 395.87016,402.04185 C 400.21239,398.09638 400.96181,397.85392 405.3922,392.87248 C 409.82259,387.89104 410.30752,386.54649 413.59174,382.11609 C 416.87597,377.68569 417.00822,378.01632 418.5291,375.15089 C 420.04998,372.28546 419.76344,367.52444 419.0581,365.89335 C 418.35276,364.26226 418.3748,364.63697 416.85392,364.13001 C 415.33304,363.62305 415.42121,363.42467 412.97457,363.86551 C 410.52794,364.30634 404.37829,366.22398 400.19035,369.5082 C 396.00241,372.79242 394.32723,374.11493 390.31563,379.03024 C 386.30403,383.94556 386.72283,383.90148 384.14394,389.16946 C 381.56505,394.43745 381.43281,395.67179 380.00009,400.10218 C 378.56737,404.53257 379.18454,403.40844 378.41308,406.89104 C 377.64162,410.37364 377.53141,410.04301 376.91424,414.03257 C 376.29707,418.02213 375.9444,422.84928 375.9444,422.84928 C 375.9444,422.84928 373.34347,423.26808 371.09521,424.17179 C 368.84695,425.0755 367.81099,425.31796 366.95136,426.46413 C 366.09173,427.6103 366.95137,427.58826 367.6567,428.75647 C 368.36203,429.92468 368.51632,431.07086 369.7727,431.13699 C 371.02908,431.20312 373.69614,427.69847 375.4154,427.43397 C 377.13466,427.16947 377.86203,427.10334 379.55925,427.96297 C 381.25647,428.8226 381.71934,428.58014 382.20426,430.87248 C 382.68918,433.16482 382.31447,434.311 381.49893,437.13235 C 380.68338,439.9537 379.51517,440.41657 378.94208,442.15787 C 378.36899,443.89917 379.47108,444.00937 379.47108,444.00937 z "
       style="fill:#fe9fb3;fill-opacity:1;fill-rule:evenodd;stroke:#000000;stroke-width:1px;stroke-linecap:butt;stroke-linejoin:miter;stroke-opacity:1" />
    <path
       sodipodi:nodetypes="csscsssscsssccs"
       id="path24164"
       d="M 358.83999,465.52214 C 362.56505,465.5001 363.31447,465.14743 366.33419,465.96298 C 369.35391,466.77853 369.61842,467.74837 370.91888,468.78433 C 372.21934,469.82029 371.53605,470.10683 371.53605,470.10683 C 371.53605,470.10683 369.90496,471.38526 368.80287,472.57551 C 367.70078,473.76576 367.94323,473.83189 367.12769,474.86785 C 366.31214,475.90381 365.95449,476.47917 365.54069,476.71936 C 365.08001,476.98676 362.5918,476.97287 362.19034,476.80753 C 361.58919,476.55995 359.89799,474.95602 359.89799,474.95602 C 359.89799,474.95602 358.24131,473.2697 357.95832,473.10451 C 357.58311,472.88549 355.77618,473.19268 353.90263,473.10451 C 352.02908,473.01634 350.80907,473.09051 350.46412,472.75184 C 349.806,472.10568 348.87711,468.69616 348.87711,468.69616 L 351.25762,466.13931 C 351.25762,466.13931 355.11493,465.54418 358.83999,465.52214 z "
       style="fill:#000000;fill-opacity:1;fill-rule:evenodd;stroke:#000000;stroke-width:1px;stroke-linecap:butt;stroke-linejoin:miter;stroke-opacity:1" />
    <path
       sodipodi:nodetypes="ccsssc"
       id="path25912"
       d="M 354.7843,466.93282 L 359.19266,467.02098 C 359.19266,467.02098 359.72166,469.93049 359.19266,470.9885 C 358.66366,472.0465 358.1567,471.80404 357.07665,471.253 C 355.9966,470.70196 355.44556,469.666 354.87247,468.78433 C 354.29938,467.90266 354.7843,466.93282 354.7843,466.93282 z "
       style="fill:#ffffff;fill-opacity:1;fill-rule:evenodd;stroke:#000000;stroke-width:0.5;stroke-linecap:butt;stroke-linejoin:miter;stroke-miterlimit:4;stroke-dasharray:none;stroke-opacity:1" />
    <path
       sodipodi:nodetypes="csssss"
       id="path25914"
       d="M 360.86783,473.89802 C 360.69173,473.6709 359.92219,473.33425 360.956,473.10451 C 361.31083,473.02566 364.72293,472.79331 365.01168,473.01634 C 365.29048,473.23168 365.36558,474.71897 365.09985,474.95602 C 364.81315,475.21177 362.38647,475.48726 362.10217,475.30869 C 361.62878,475.01135 361.06903,474.15751 360.86783,473.89802 z "
       style="fill:#ffffff;fill-opacity:1;fill-rule:evenodd;stroke:#000000;stroke-width:0.5;stroke-linecap:butt;stroke-linejoin:miter;stroke-miterlimit:4;stroke-dasharray:none;stroke-opacity:1" />
    <path
       sodipodi:nodetypes="ccscss"
       id="path25916"
       d="M 350.64045,469.31333 C 350.28778,468.4537 350.46411,468.07898 350.46411,468.07898 C 350.46411,468.07898 352.6318,467.87273 353.02096,468.25532 C 353.59062,468.81537 354.60797,471.95834 354.60797,471.95834 C 354.60797,471.95834 352.68132,472.5167 351.96296,471.95834 C 351.45469,471.56327 350.99312,470.17296 350.64045,469.31333 z "
       style="fill:#ffffff;fill-opacity:1;fill-rule:evenodd;stroke:#000000;stroke-width:0.5;stroke-linecap:butt;stroke-linejoin:miter;stroke-miterlimit:4;stroke-dasharray:none;stroke-opacity:1" />
    <path
       sodipodi:nodetypes="cssssscc"
       id="path26791"
       d="M 354.74022,445.42005 C 354.07897,445.33188 354.56389,443.63467 355.22514,441.8052 C 355.88639,439.97573 356.28314,439.03895 357.38523,438.10218 C 358.48732,437.1654 358.64161,437.73849 359.63349,438.0581 C 360.62537,438.37771 361.24254,438.27852 361.35275,439.38061 C 361.46296,440.4827 360.44904,440.97863 360.07433,442.46645 C 359.69962,443.95427 359.85391,445.33188 359.85391,445.33188 L 354.74022,445.42005 z "
       style="fill:#000000;fill-opacity:1;fill-rule:evenodd;stroke:#000000;stroke-width:1px;stroke-linecap:butt;stroke-linejoin:miter;stroke-opacity:1" />
    <path
       sodipodi:nodetypes="cssssscc"
       id="path26793"
       d="M 366.73094,445.64047 C 365.84927,445.59638 366.57665,443.57956 367.12769,441.98153 C 367.67873,440.3835 367.81099,439.9537 368.93512,439.24836 C 370.05925,438.54303 370.66539,438.86263 371.62421,439.16019 C 372.58303,439.45775 372.59406,439.49081 372.77039,440.43861 C 372.94673,441.3864 372.43976,441.95949 372.32955,442.95137 C 372.21934,443.94325 372.32955,444.40613 372.32955,444.40613 L 366.73094,445.64047 z "
       style="fill:#000000;fill-opacity:1;fill-rule:evenodd;stroke:#000000;stroke-width:1px;stroke-linecap:butt;stroke-linejoin:miter;stroke-opacity:1" />
    <path
       id="path28553"
       d="M 371.84463,469.79824 L 377.44324,470.37133"
       style="fill:none;fill-opacity:0.75;fill-rule:evenodd;stroke:#000000;stroke-width:1px;stroke-linecap:round;stroke-linejoin:miter;stroke-opacity:1" />
    <path
       id="path28555"
       d="M 349.05345,468.65207 L 343.89568,470.54767 L 343.89568,470.54767"
       style="fill:none;fill-opacity:0.75;fill-rule:evenodd;stroke:#000000;stroke-width:1px;stroke-linecap:round;stroke-linejoin:miter;stroke-opacity:1" />
    <path
       id="path28557"
       d="M 347.5546,462.25995 L 351.16945,466.27156"
       style="fill:none;fill-opacity:0.75;fill-rule:evenodd;stroke:#000000;stroke-width:1px;stroke-linecap:round;stroke-linejoin:miter;stroke-opacity:1" />
    <g
       transform="translate(6.382052,13.20469)"
       id="g34676">
      <path
         sodipodi:type="arc"
         style="opacity:1;color:#000000;fill:#000002;fill-opacity:1;fill-rule:evenodd;stroke:#000000;stroke-width:1.70945692;stroke-linecap:butt;stroke-linejoin:miter;marker:none;marker-start:none;marker-mid:none;marker-end:none;stroke-miterlimit:4;stroke-dasharray:none;stroke-dashoffset:0;stroke-opacity:1;visibility:visible;display:inline;overflow:visible"
         id="path32926"
         sodipodi:cx="207.54529"
         sodipodi:cy="452.38525"
         sodipodi:rx="7.2297001"
         sodipodi:ry="4.1438522"
         d="M 214.77499 452.38525 A 7.2297001 4.1438522 0 1 1  200.31559,452.38525 A 7.2297001 4.1438522 0 1 1  214.77499 452.38525 z"
         transform="matrix(0.825865,-0.184981,0.170878,0.894029,90.17313,72.46571)" />
      <path
         style="fill:#ffffff;fill-opacity:1;fill-rule:evenodd;stroke:#000000;stroke-width:0.1;stroke-linecap:butt;stroke-linejoin:miter;stroke-miterlimit:4;stroke-dasharray:none;stroke-opacity:1"
         d="M 339.59464,436.62091 C 340.10046,436.09115 340.38306,435.78619 339.57259,435.50564 C 338.76213,435.22509 338.46305,435.31704 337.27852,435.41055 C 336.09399,435.50407 334.8783,436.40806 334.41072,437.03149 C 333.94314,437.65493 333.91197,440.02398 333.91197,440.02398 C 333.91197,440.02398 334.47306,440.58507 335.03415,440.7721 C 335.59524,440.95913 336.15634,440.7721 336.15634,440.7721 C 336.15634,440.7721 336.81095,439.21351 337.90196,438.15367 C 338.99297,437.09383 339.05408,437.18703 339.59464,436.62091 z "
         id="path33801"
         sodipodi:nodetypes="cssscscss" />
    </g>
    <path
       id="path34683"
       d="M 375.37043,476.55729 L 376.92901,473.87652 L 376.99136,473.75183"
       style="fill:none;fill-opacity:0.75;fill-rule:evenodd;stroke:#000000;stroke-width:1px;stroke-linecap:round;stroke-linejoin:round;marker-start:none;stroke-opacity:1" />
    <path
       sodipodi:nodetypes="cssssssssssssssc"
       id="path22401"
       d="M 391.90264,422.58478 C 391.90264,422.58478 395.60566,418.19847 400.01401,414.12074 C 404.42236,410.04301 404.92932,409.77851 409.53605,406.27387 C 414.14278,402.76923 413.81216,403.05578 418.44093,400.10218 C 423.0697,397.14858 423.70891,396.81795 428.05114,394.45948 C 432.39337,392.10101 433.07666,391.68222 435.80984,390.6683 C 438.54302,389.65438 437.35277,389.94092 438.54302,389.96296 C 439.73328,389.98501 440.15207,390.11726 440.57086,390.75647 C 440.98965,391.39568 441.71703,391.17526 440.65903,392.96064 C 439.60103,394.74602 438.91774,395.05461 436.33885,397.898 C 433.75996,400.74139 427.27968,406.03141 423.81912,407.77271 C 420.35856,409.51401 420.49081,409.62422 416.50125,411.29939 C 412.51169,412.97456 411.67411,413.72399 407.86088,414.47341 C 404.04766,415.22283 403.23211,414.34116 401.24835,414.29707 C 399.26459,414.25299 402.26227,412.22514 399.92584,414.29707 C 397.58941,416.369 391.90264,422.58478 391.90264,422.58478 z "
       style="fill:#ffffff;fill-opacity:1;fill-rule:evenodd;stroke:#000000;stroke-width:1px;stroke-linecap:butt;stroke-linejoin:miter;stroke-opacity:1" />
  </g>
</svg>
